<svg xmlns="http://www.w3.org/2000/svg" xmlns:xlink="http://www.w3.org/1999/xlink" width="1212" height="1120" aria-label="academic" role="img" viewBox="0 0 909 840"><g id="graph0" class="graph" transform="scale(1 1) rotate(0) translate(25.2 814.4)"><title>nexoAula — academic</title><polygon fill="#fff" stroke="none" points="-25.2 25.2 -25.2 -814.4 884.15 -814.4 884.15 25.2 -25.2 25.2"/><text x="429.48" y="-769" font-family="Arial" font-size="18" text-anchor="middle" xml:space="preserve">nexoAula | academic | origem FK → destino referenciado</text><g id="node1" class="node"><title>users</title><polygon fill="none" stroke="#64748b" points="533.32 -568 533.32 -616.4 624.19 -616.4 624.19 -568 533.32 -568"/><polygon fill="#64748b" stroke="none" points="534.32 -592.2 534.32 -615.4 623.19 -615.4 623.19 -592.2 534.32 -592.2"/><text x="539.32" y="-601.5" fill="#fff" font-family="Arial" font-size="11" font-weight="bold" text-anchor="start" xml:space="preserve">users [externa]</text><text x="539.32" y="-576.2" font-family="Arial" font-size="11" text-anchor="start" xml:space="preserve">id</text><text x="577.63" y="-576.2" font-family="Arial" font-size="11" text-anchor="start" xml:space="preserve">uuid</text></g><g id="node2" class="node"><title>institutions</title><polygon fill="none" stroke="#0284c7" points="716.51 -295 716.51 -459.4 858.95 -459.4 858.95 -295 716.51 -295"/><polygon fill="#0284c7" stroke="none" points="717.51 -435.2 717.51 -458.4 857.95 -458.4 857.95 -435.2 717.51 -435.2"/><text x="758.09" y="-444.5" fill="#fff" font-family="Arial" font-size="11" font-weight="bold" text-anchor="start" xml:space="preserve">institutions</text><text x="722.51" y="-419.2" font-family="Arial" font-size="11" text-anchor="start" xml:space="preserve">id</text><text x="790.59" y="-419.2" font-family="Arial" font-size="11" text-anchor="start" xml:space="preserve">uuid</text><text x="722.51" y="-396" font-family="Arial" font-size="11" text-anchor="start" xml:space="preserve">name</text><text x="790.59" y="-396" font-family="Arial" font-size="11" text-anchor="start" xml:space="preserve">varchar(200)</text><text x="722.51" y="-372.8" font-family="Arial" font-size="11" text-anchor="start" xml:space="preserve">short_name</text><text x="790.59" y="-372.8" font-family="Arial" font-size="11" text-anchor="start" xml:space="preserve">varchar(50)</text><text x="722.51" y="-349.6" font-family="Arial" font-size="11" text-anchor="start" xml:space="preserve">timezone</text><text x="790.59" y="-349.6" font-family="Arial" font-size="11" text-anchor="start" xml:space="preserve">varchar(64)</text><text x="722.51" y="-326.4" font-family="Arial" font-size="11" text-anchor="start" xml:space="preserve">created_at</text><text x="790.59" y="-326.4" font-family="Arial" font-size="11" text-anchor="start" xml:space="preserve">timestamptz</text><text x="722.51" y="-303.2" font-family="Arial" font-size="11" text-anchor="start" xml:space="preserve">updated_at</text><text x="790.59" y="-303.2" font-family="Arial" font-size="11" text-anchor="start" xml:space="preserve">timestamptz</text></g><g id="node3" class="node"><title>courses</title><polygon fill="none" stroke="#0284c7" points="506 0 506 -164.4 651.51 -164.4 651.51 0 506 0"/><polygon fill="#0284c7" stroke="none" points="507 -140.2 507 -163.4 650.51 -163.4 650.51 -140.2 507 -140.2"/><text x="557.66" y="-149.5" fill="#fff" font-family="Arial" font-size="11" font-weight="bold" text-anchor="start" xml:space="preserve">courses</text><text x="512" y="-124.2" font-family="Arial" font-size="11" text-anchor="start" xml:space="preserve">id</text><text x="583.15" y="-124.2" font-family="Arial" font-size="11" text-anchor="start" xml:space="preserve">uuid</text><text x="512" y="-101" font-family="Arial" font-size="11" text-anchor="start" xml:space="preserve">institution_id</text><text x="583.15" y="-101" font-family="Arial" font-size="11" text-anchor="start" xml:space="preserve">uuid</text><text x="512" y="-77.8" font-family="Arial" font-size="11" text-anchor="start" xml:space="preserve">name</text><text x="583.15" y="-77.8" font-family="Arial" font-size="11" text-anchor="start" xml:space="preserve">varchar(200)</text><text x="512" y="-54.6" font-family="Arial" font-size="11" text-anchor="start" xml:space="preserve">code</text><text x="583.15" y="-54.6" font-family="Arial" font-size="11" text-anchor="start" xml:space="preserve">varchar(40)</text><text x="512" y="-31.4" font-family="Arial" font-size="11" text-anchor="start" xml:space="preserve">created_at</text><text x="583.15" y="-31.4" font-family="Arial" font-size="11" text-anchor="start" xml:space="preserve">timestamptz</text><text x="512" y="-8.2" font-family="Arial" font-size="11" text-anchor="start" xml:space="preserve">updated_at</text><text x="583.15" y="-8.2" font-family="Arial" font-size="11" text-anchor="start" xml:space="preserve">timestamptz</text></g><g id="edge1" class="edge"><title>courses-&gt;institutions</title><g id="a_edge1"><a xlink:title="institution_id → id; DELETE restrict"><path fill="none" stroke="#94a3b8" d="M642.25,-164.39C645.4,-168.71 648.5,-173 651.51,-177.2 677.32,-213.31 704.92,-253.77 728.41,-288.81"/><polygon fill="#94a3b8" stroke="#94a3b8" points="726.4 -289.89 731.91 -294.02 730.18 -287.36 726.4 -289.89"/></a></g></g><g id="node4" class="node"><title>subjects</title><polygon fill="none" stroke="#0284c7" points="506 -189.4 506 -377 651.51 -377 651.51 -189.4 506 -189.4"/><polygon fill="#0284c7" stroke="none" points="507 -352.8 507 -376 650.51 -376 650.51 -352.8 507 -352.8"/><text x="556.44" y="-362.1" fill="#fff" font-family="Arial" font-size="11" font-weight="bold" text-anchor="start" xml:space="preserve">subjects</text><text x="512" y="-336.8" font-family="Arial" font-size="11" text-anchor="start" xml:space="preserve">id</text><text x="583.15" y="-336.8" font-family="Arial" font-size="11" text-anchor="start" xml:space="preserve">uuid</text><text x="512" y="-313.6" font-family="Arial" font-size="11" text-anchor="start" xml:space="preserve">institution_id</text><text x="583.15" y="-313.6" font-family="Arial" font-size="11" text-anchor="start" xml:space="preserve">uuid</text><text x="512" y="-290.4" font-family="Arial" font-size="11" text-anchor="start" xml:space="preserve">name</text><text x="583.15" y="-290.4" font-family="Arial" font-size="11" text-anchor="start" xml:space="preserve">varchar(200)</text><text x="512" y="-267.2" font-family="Arial" font-size="11" text-anchor="start" xml:space="preserve">code</text><text x="583.15" y="-267.2" font-family="Arial" font-size="11" text-anchor="start" xml:space="preserve">varchar(40)</text><text x="512" y="-244" font-family="Arial" font-size="11" text-anchor="start" xml:space="preserve">description</text><text x="583.15" y="-244" font-family="Arial" font-size="11" text-anchor="start" xml:space="preserve">text</text><text x="512" y="-220.8" font-family="Arial" font-size="11" text-anchor="start" xml:space="preserve">created_at</text><text x="583.15" y="-220.8" font-family="Arial" font-size="11" text-anchor="start" xml:space="preserve">timestamptz</text><text x="512" y="-197.6" font-family="Arial" font-size="11" text-anchor="start" xml:space="preserve">updated_at</text><text x="583.15" y="-197.6" font-family="Arial" font-size="11" text-anchor="start" xml:space="preserve">timestamptz</text></g><g id="edge2" class="edge"><title>subjects-&gt;institutions</title><g id="a_edge2"><a xlink:title="institution_id → id; DELETE restrict"><path fill="none" stroke="#94a3b8" d="M651.27,-315.68C670.03,-324.2 690.33,-333.42 709.38,-342.07"/><polygon fill="#94a3b8" stroke="#94a3b8" points="708.37 -344.11 715.23 -344.73 710.25 -339.97 708.37 -344.11"/></a></g></g><g id="node5" class="node"><title>course_subjects</title><polygon fill="none" stroke="#0284c7" points="303.44 -119.8 303.44 -214.6 407.39 -214.6 407.39 -119.8 303.44 -119.8"/><polygon fill="#0284c7" stroke="none" points="304.44 -190.4 304.44 -213.6 406.39 -213.6 406.39 -190.4 304.44 -190.4"/><text x="312.01" y="-199.7" fill="#fff" font-family="Arial" font-size="11" font-weight="bold" text-anchor="start" xml:space="preserve">course_subjects</text><text x="309.44" y="-174.4" font-family="Arial" font-size="11" text-anchor="start" xml:space="preserve">course_id</text><text x="380.59" y="-174.4" font-family="Arial" font-size="11" text-anchor="start" xml:space="preserve">uuid</text><text x="309.44" y="-151.2" font-family="Arial" font-size="11" text-anchor="start" xml:space="preserve">subject_id</text><text x="380.59" y="-151.2" font-family="Arial" font-size="11" text-anchor="start" xml:space="preserve">uuid</text><text x="309.44" y="-128" font-family="Arial" font-size="11" text-anchor="start" xml:space="preserve">institution_id</text><text x="380.59" y="-128" font-family="Arial" font-size="11" text-anchor="start" xml:space="preserve">uuid</text></g><g id="edge3" class="edge"><title>course_subjects-&gt;courses</title><g id="a_edge3"><a xlink:title="course_id, institution_id → id, institution_id; DELETE cascade"><path fill="none" stroke="#94a3b8" d="M407.19,-147.7C434.37,-137.26 468.44,-124.18 498.97,-112.45"/><polygon fill="#94a3b8" stroke="#94a3b8" points="499.58 -114.66 504.83 -110.2 497.94 -110.41 499.58 -114.66"/></a></g></g><g id="edge4" class="edge"><title>course_subjects-&gt;subjects</title><g id="a_edge4"><a xlink:title="subject_id, institution_id → id, institution_id; DELETE cascade"><path fill="none" stroke="#94a3b8" d="M407.19,-193.81C434.49,-208.12 468.73,-226.06 499.36,-242.11"/><polygon fill="#94a3b8" stroke="#94a3b8" points="498.09 -244.02 504.9 -245.02 500.2 -239.99 498.09 -244.02"/></a></g></g><g id="node6" class="node"><title>academic_terms</title><polygon fill="none" stroke="#0284c7" points="509.06 -401.6 509.06 -542.8 648.45 -542.8 648.45 -401.6 509.06 -401.6"/><polygon fill="#0284c7" stroke="none" points="510.06 -518.6 510.06 -541.8 647.45 -541.8 647.45 -518.6 510.06 -518.6"/><text x="535.64" y="-527.9" fill="#fff" font-family="Arial" font-size="11" font-weight="bold" text-anchor="start" xml:space="preserve">academic_terms</text><text x="515.06" y="-502.6" font-family="Arial" font-size="11" text-anchor="start" xml:space="preserve">id</text><text x="586.21" y="-502.6" font-family="Arial" font-size="11" text-anchor="start" xml:space="preserve">uuid</text><text x="515.06" y="-479.4" font-family="Arial" font-size="11" text-anchor="start" xml:space="preserve">institution_id</text><text x="586.21" y="-479.4" font-family="Arial" font-size="11" text-anchor="start" xml:space="preserve">uuid</text><text x="515.06" y="-456.2" font-family="Arial" font-size="11" text-anchor="start" xml:space="preserve">label</text><text x="586.21" y="-456.2" font-family="Arial" font-size="11" text-anchor="start" xml:space="preserve">varchar(30)</text><text x="515.06" y="-433" font-family="Arial" font-size="11" text-anchor="start" xml:space="preserve">start_date</text><text x="586.21" y="-433" font-family="Arial" font-size="11" text-anchor="start" xml:space="preserve">date</text><text x="515.06" y="-409.8" font-family="Arial" font-size="11" text-anchor="start" xml:space="preserve">end_date</text><text x="586.21" y="-409.8" font-family="Arial" font-size="11" text-anchor="start" xml:space="preserve">date</text></g><g id="edge5" class="edge"><title>academic_terms-&gt;institutions</title><g id="a_edge5"><a xlink:title="institution_id → id; DELETE restrict"><path fill="none" stroke="#94a3b8" d="M648.39,-440.7C667.96,-431.71 689.43,-421.86 709.48,-412.66"/><polygon fill="#94a3b8" stroke="#94a3b8" points="710.18 -414.84 715.14 -410.06 708.28 -410.7 710.18 -414.84"/></a></g></g><g id="node7" class="node"><title>teachers</title><polygon fill="none" stroke="#0284c7" points="278.68 -560.4 278.68 -748 432.15 -748 432.15 -560.4 278.68 -560.4"/><polygon fill="#0284c7" stroke="none" points="279.68 -723.8 279.68 -747 431.15 -747 431.15 -723.8 279.68 -723.8"/><text x="332.79" y="-733.1" fill="#fff" font-family="Arial" font-size="11" font-weight="bold" text-anchor="start" xml:space="preserve">teachers</text><text x="284.68" y="-707.8" font-family="Arial" font-size="11" text-anchor="start" xml:space="preserve">id</text><text x="363.79" y="-707.8" font-family="Arial" font-size="11" text-anchor="start" xml:space="preserve">uuid</text><text x="284.68" y="-684.6" font-family="Arial" font-size="11" text-anchor="start" xml:space="preserve">institution_id</text><text x="363.79" y="-684.6" font-family="Arial" font-size="11" text-anchor="start" xml:space="preserve">uuid</text><text x="284.68" y="-661.4" font-family="Arial" font-size="11" text-anchor="start" xml:space="preserve">user_id</text><text x="363.79" y="-661.4" font-family="Arial" font-size="11" text-anchor="start" xml:space="preserve">uuid</text><text x="284.68" y="-638.2" font-family="Arial" font-size="11" text-anchor="start" xml:space="preserve">full_name</text><text x="363.79" y="-638.2" font-family="Arial" font-size="11" text-anchor="start" xml:space="preserve">varchar(200)</text><text x="284.68" y="-615" font-family="Arial" font-size="11" text-anchor="start" xml:space="preserve">external_code</text><text x="363.79" y="-615" font-family="Arial" font-size="11" text-anchor="start" xml:space="preserve">varchar(50)</text><text x="284.68" y="-591.8" font-family="Arial" font-size="11" text-anchor="start" xml:space="preserve">created_at</text><text x="363.79" y="-591.8" font-family="Arial" font-size="11" text-anchor="start" xml:space="preserve">timestamptz</text><text x="284.68" y="-568.6" font-family="Arial" font-size="11" text-anchor="start" xml:space="preserve">updated_at</text><text x="363.79" y="-568.6" font-family="Arial" font-size="11" text-anchor="start" xml:space="preserve">timestamptz</text></g><g id="edge7" class="edge"><title>teachers-&gt;users</title><g id="a_edge7"><a xlink:title="user_id → id; DELETE set null"><path fill="none" stroke="#94a3b8" d="M431.97,-633.04C462.87,-624.38 497.86,-614.58 525.81,-606.75"/><polygon fill="#94a3b8" stroke="#94a3b8" points="526.39 -608.95 532.04 -605.01 525.17 -604.57 526.39 -608.95"/></a></g></g><g id="edge6" class="edge"><title>teachers-&gt;institutions</title><g id="a_edge6"><a xlink:title="institution_id → id; DELETE restrict"><path fill="none" stroke="#94a3b8" d="M431.88,-666.55C495.62,-672.87 586.63,-671.84 651.51,-629.2 707.99,-592.08 742.64,-523.17 762.71,-466.79"/><polygon fill="#94a3b8" stroke="#94a3b8" points="764.84 -467.59 764.82 -460.7 760.54 -466.09 764.84 -467.59"/></a></g></g><g id="node8" class="node"><title>class_sections</title><polygon fill="none" stroke="#0284c7" points="269.83 -324.8 269.83 -535.6 441 -535.6 441 -324.8 269.83 -324.8"/><polygon fill="#0284c7" stroke="none" points="270.83 -511.4 270.83 -534.6 440 -534.6 440 -511.4 270.83 -511.4"/><text x="316.28" y="-520.7" fill="#fff" font-family="Arial" font-size="11" font-weight="bold" text-anchor="start" xml:space="preserve">class_sections</text><text x="275.83" y="-495.4" font-family="Arial" font-size="11" text-anchor="start" xml:space="preserve">id</text><text x="375.71" y="-495.4" font-family="Arial" font-size="11" text-anchor="start" xml:space="preserve">uuid</text><text x="275.83" y="-472.2" font-family="Arial" font-size="11" text-anchor="start" xml:space="preserve">institution_id</text><text x="375.71" y="-472.2" font-family="Arial" font-size="11" text-anchor="start" xml:space="preserve">uuid</text><text x="275.83" y="-449" font-family="Arial" font-size="11" text-anchor="start" xml:space="preserve">subject_id</text><text x="375.71" y="-449" font-family="Arial" font-size="11" text-anchor="start" xml:space="preserve">uuid</text><text x="275.83" y="-425.8" font-family="Arial" font-size="11" text-anchor="start" xml:space="preserve">academic_term_id</text><text x="375.71" y="-425.8" font-family="Arial" font-size="11" text-anchor="start" xml:space="preserve">uuid</text><text x="275.83" y="-402.6" font-family="Arial" font-size="11" text-anchor="start" xml:space="preserve">label</text><text x="375.71" y="-402.6" font-family="Arial" font-size="11" text-anchor="start" xml:space="preserve">varchar(80)</text><text x="275.83" y="-379.4" font-family="Arial" font-size="11" text-anchor="start" xml:space="preserve">created_by</text><text x="375.71" y="-379.4" font-family="Arial" font-size="11" text-anchor="start" xml:space="preserve">uuid</text><text x="275.83" y="-356.2" font-family="Arial" font-size="11" text-anchor="start" xml:space="preserve">created_at</text><text x="375.71" y="-356.2" font-family="Arial" font-size="11" text-anchor="start" xml:space="preserve">timestamptz</text><text x="275.83" y="-333" font-family="Arial" font-size="11" text-anchor="start" xml:space="preserve">updated_at</text><text x="375.71" y="-333" font-family="Arial" font-size="11" text-anchor="start" xml:space="preserve">timestamptz</text></g><g id="edge10" class="edge"><title>class_sections-&gt;users</title><g id="a_edge10"><a xlink:title="created_by → id; DELETE restrict"><path fill="none" stroke="#94a3b8" d="M440.9,-506.28C461.53,-523.29 484.01,-540.6 506,-555.2 512.48,-559.5 519.52,-563.68 526.58,-567.58"/><polygon fill="#94a3b8" stroke="#94a3b8" points="525.49 -569.58 532.29 -570.67 527.65 -565.57 525.49 -569.58"/></a></g></g><g id="edge8" class="edge"><title>class_sections-&gt;subjects</title><g id="a_edge8"><a xlink:title="subject_id, institution_id → id, institution_id; DELETE restrict"><path fill="none" stroke="#94a3b8" d="M440.72,-374.21C460.15,-361.3 480.73,-347.64 499.87,-334.92"/><polygon fill="#94a3b8" stroke="#94a3b8" points="500.89 -336.98 505.04 -331.49 498.37 -333.19 500.89 -336.98"/></a></g></g><g id="edge9" class="edge"><title>class_sections-&gt;academic_terms</title><g id="a_edge9"><a xlink:title="academic_term_id, institution_id → id, institution_id; DELETE restrict"><path fill="none" stroke="#94a3b8" d="M440.72,-446.2C460.68,-449.98 481.84,-454 501.42,-457.72"/><polygon fill="#94a3b8" stroke="#94a3b8" points="500.83 -459.92 507.64 -458.9 501.67 -455.45 500.83 -459.92"/></a></g></g><g id="node9" class="node"><title>class_section_teachers</title><polygon fill="none" stroke="#0284c7" points="0 -548.8 0 -759.6 204.83 -759.6 204.83 -548.8 0 -548.8"/><polygon fill="#0284c7" stroke="none" points="1 -735.4 1 -758.6 203.83 -758.6 203.83 -735.4 1 -735.4"/><text x="40.65" y="-744.7" fill="#fff" font-family="Arial" font-size="11" font-weight="bold" text-anchor="start" xml:space="preserve">class_section_teachers</text><text x="6" y="-719.4" font-family="Arial" font-size="11" text-anchor="start" xml:space="preserve">id</text><text x="96.71" y="-719.4" font-family="Arial" font-size="11" text-anchor="start" xml:space="preserve">uuid</text><text x="6" y="-696.2" font-family="Arial" font-size="11" text-anchor="start" xml:space="preserve">class_section_id</text><text x="96.71" y="-696.2" font-family="Arial" font-size="11" text-anchor="start" xml:space="preserve">uuid</text><text x="6" y="-673" font-family="Arial" font-size="11" text-anchor="start" xml:space="preserve">teacher_id</text><text x="96.71" y="-673" font-family="Arial" font-size="11" text-anchor="start" xml:space="preserve">uuid</text><text x="6" y="-649.8" font-family="Arial" font-size="11" text-anchor="start" xml:space="preserve">institution_id</text><text x="96.71" y="-649.8" font-family="Arial" font-size="11" text-anchor="start" xml:space="preserve">uuid</text><text x="6" y="-626.6" font-family="Arial" font-size="11" text-anchor="start" xml:space="preserve">role</text><text x="96.71" y="-626.6" font-family="Arial" font-size="11" text-anchor="start" xml:space="preserve">section_teacher_role</text><text x="6" y="-603.4" font-family="Arial" font-size="11" text-anchor="start" xml:space="preserve">starts_on</text><text x="96.71" y="-603.4" font-family="Arial" font-size="11" text-anchor="start" xml:space="preserve">date</text><text x="6" y="-580.2" font-family="Arial" font-size="11" text-anchor="start" xml:space="preserve">ends_on</text><text x="96.71" y="-580.2" font-family="Arial" font-size="11" text-anchor="start" xml:space="preserve">date</text><text x="6" y="-557" font-family="Arial" font-size="11" text-anchor="start" xml:space="preserve">created_at</text><text x="96.71" y="-557" font-family="Arial" font-size="11" text-anchor="start" xml:space="preserve">timestamptz</text></g><g id="edge12" class="edge"><title>class_section_teachers-&gt;teachers</title><g id="a_edge12"><a xlink:title="teacher_id, institution_id → id, institution_id; DELETE restrict"><path fill="none" stroke="#94a3b8" d="M204.78,-654.2C226.84,-654.2 249.92,-654.2 271.18,-654.2"/><polygon fill="#94a3b8" stroke="#94a3b8" points="270.91 -656.48 277.41 -654.2 270.91 -651.93 270.91 -656.48"/></a></g></g><g id="edge11" class="edge"><title>class_section_teachers-&gt;class_sections</title><g id="a_edge11"><a xlink:title="class_section_id, institution_id → id, institution_id; DELETE cascade"><path fill="none" stroke="#94a3b8" d="M204.78,-563.74C224.39,-546.24 244.81,-528.02 264.04,-510.86"/><polygon fill="#94a3b8" stroke="#94a3b8" points="265.5 -512.6 268.83 -506.58 262.47 -509.21 265.5 -512.6"/></a></g></g><g id="node10" class="node"><title>class_section_schedules</title><polygon fill="none" stroke="#0284c7" points="19.88 -312.8 19.88 -523.6 184.95 -523.6 184.95 -312.8 19.88 -312.8"/><polygon fill="#0284c7" stroke="none" points="20.88 -499.4 20.88 -522.6 183.95 -522.6 183.95 -499.4 20.88 -499.4"/><text x="36.38" y="-508.7" fill="#fff" font-family="Arial" font-size="11" font-weight="bold" text-anchor="start" xml:space="preserve">class_section_schedules</text><text x="25.88" y="-483.4" font-family="Arial" font-size="11" text-anchor="start" xml:space="preserve">id</text><text x="116.59" y="-483.4" font-family="Arial" font-size="11" text-anchor="start" xml:space="preserve">uuid</text><text x="25.88" y="-460.2" font-family="Arial" font-size="11" text-anchor="start" xml:space="preserve">class_section_id</text><text x="116.59" y="-460.2" font-family="Arial" font-size="11" text-anchor="start" xml:space="preserve">uuid</text><text x="25.88" y="-437" font-family="Arial" font-size="11" text-anchor="start" xml:space="preserve">day_of_week</text><text x="116.59" y="-437" font-family="Arial" font-size="11" text-anchor="start" xml:space="preserve">smallint</text><text x="25.88" y="-413.8" font-family="Arial" font-size="11" text-anchor="start" xml:space="preserve">start_time</text><text x="116.59" y="-413.8" font-family="Arial" font-size="11" text-anchor="start" xml:space="preserve">time</text><text x="25.88" y="-390.6" font-family="Arial" font-size="11" text-anchor="start" xml:space="preserve">end_time</text><text x="116.59" y="-390.6" font-family="Arial" font-size="11" text-anchor="start" xml:space="preserve">time</text><text x="25.88" y="-367.4" font-family="Arial" font-size="11" text-anchor="start" xml:space="preserve">location</text><text x="116.59" y="-367.4" font-family="Arial" font-size="11" text-anchor="start" xml:space="preserve">varchar(150)</text><text x="25.88" y="-344.2" font-family="Arial" font-size="11" text-anchor="start" xml:space="preserve">effective_from</text><text x="116.59" y="-344.2" font-family="Arial" font-size="11" text-anchor="start" xml:space="preserve">date</text><text x="25.88" y="-321" font-family="Arial" font-size="11" text-anchor="start" xml:space="preserve">effective_until</text><text x="116.59" y="-321" font-family="Arial" font-size="11" text-anchor="start" xml:space="preserve">date</text></g><g id="edge13" class="edge"><title>class_section_schedules-&gt;class_sections</title><g id="a_edge13"><a xlink:title="class_section_id → id; DELETE cascade"><path fill="none" stroke="#94a3b8" d="M184.91,-422.1C209.56,-423.27 236.8,-424.58 262.1,-425.79"/><polygon fill="#94a3b8" stroke="#94a3b8" points="261.77 -428.05 268.37 -426.09 261.99 -423.5 261.77 -428.05"/></a></g></g></g></svg>