<?xml version="1.0" encoding="UTF-8" standalone="no"?>
<!DOCTYPE svg PUBLIC "-//W3C//DTD SVG 1.1//EN"
 "http://www.w3.org/Graphics/SVG/1.1/DTD/svg11.dtd">
<!-- Generated by graphviz version 16.0.0 (20260814.1018)
 -->
<!-- Title: model Pages: 1 -->
<!-- DBML SHA256: a0398844d6cb49167535fae0d7a38caf6358bab5d387a2fbd103fccbbc1a5495 -->
<svg role="img" aria-label="community" width="1459pt" height="1059pt"
 viewBox="0.00 0.00 1459.00 1059.00" xmlns="http://www.w3.org/2000/svg" xmlns:xlink="http://www.w3.org/1999/xlink">
<g id="graph0" class="graph" transform="scale(1 1) rotate(0) translate(25.2 1033.41)">
<title>nexoAula — community</title>
<polygon fill="white" stroke="none" points="-25.2,25.2 -25.2,-1033.41 1433.48,-1033.41 1433.48,25.2 -25.2,25.2"/>
<text xml:space="preserve" text-anchor="middle" x="704.14" y="-988.01" font-family="Arial" font-size="18.00">nexoAula | community | origem FK → destino referenciado</text>
<!-- users -->
<g id="node1" class="node">
<title>users</title>
<polygon fill="none" stroke="#64748b" points="1292.95,-717.18 1292.95,-765.58 1383.82,-765.58 1383.82,-717.18 1292.95,-717.18"/>
<polygon fill="#64748b" stroke="none" points="1293.95,-741.38 1293.95,-764.58 1382.82,-764.58 1382.82,-741.38 1293.95,-741.38"/>
<text xml:space="preserve" text-anchor="start" x="1298.95" y="-750.68" font-family="Arial" font-weight="bold" font-size="11.00" fill="white">users [externa]</text>
<text xml:space="preserve" text-anchor="start" x="1298.95" y="-725.38" font-family="Arial" font-size="11.00">id</text>
<text xml:space="preserve" text-anchor="start" x="1337.26" y="-725.38" font-family="Arial" font-size="11.00">uuid</text>
</g>
<!-- files -->
<g id="node2" class="node">
<title>files</title>
<polygon fill="none" stroke="#64748b" points="1296.62,-377.18 1296.62,-425.58 1380.14,-425.58 1380.14,-377.18 1296.62,-377.18"/>
<polygon fill="#64748b" stroke="none" points="1297.62,-401.38 1297.62,-424.58 1379.14,-424.58 1379.14,-401.38 1297.62,-401.38"/>
<text xml:space="preserve" text-anchor="start" x="1302.62" y="-410.68" font-family="Arial" font-weight="bold" font-size="11.00" fill="white">files [externa]</text>
<text xml:space="preserve" text-anchor="start" x="1302.62" y="-385.38" font-family="Arial" font-size="11.00">id</text>
<text xml:space="preserve" text-anchor="start" x="1337.26" y="-385.38" font-family="Arial" font-size="11.00">uuid</text>
</g>
<!-- subjects -->
<g id="node3" class="node">
<title>subjects</title>
<polygon fill="none" stroke="#64748b" points="1285.31,-450.18 1285.31,-498.58 1391.45,-498.58 1391.45,-450.18 1285.31,-450.18"/>
<polygon fill="#64748b" stroke="none" points="1286.31,-474.38 1286.31,-497.58 1390.45,-497.58 1390.45,-474.38 1286.31,-474.38"/>
<text xml:space="preserve" text-anchor="start" x="1291.31" y="-483.68" font-family="Arial" font-weight="bold" font-size="11.00" fill="white">subjects [externa]</text>
<text xml:space="preserve" text-anchor="start" x="1291.31" y="-458.38" font-family="Arial" font-size="11.00">id</text>
<text xml:space="preserve" text-anchor="start" x="1337.26" y="-458.38" font-family="Arial" font-size="11.00">uuid</text>
</g>
<!-- class_sections -->
<g id="node4" class="node">
<title>class_sections</title>
<polygon fill="none" stroke="#64748b" points="1268.49,-280.58 1268.49,-352.18 1408.28,-352.18 1408.28,-280.58 1268.49,-280.58"/>
<polygon fill="#64748b" stroke="none" points="1269.49,-327.98 1269.49,-351.18 1407.28,-351.18 1407.28,-327.98 1269.49,-327.98"/>
<text xml:space="preserve" text-anchor="start" x="1274.49" y="-337.28" font-family="Arial" font-weight="bold" font-size="11.00" fill="white">class_sections [externa]</text>
<text xml:space="preserve" text-anchor="start" x="1274.49" y="-311.98" font-family="Arial" font-size="11.00">id</text>
<text xml:space="preserve" text-anchor="start" x="1357.75" y="-311.98" font-family="Arial" font-size="11.00">uuid</text>
<text xml:space="preserve" text-anchor="start" x="1274.49" y="-288.78" font-family="Arial" font-size="11.00">subject_id</text>
<text xml:space="preserve" text-anchor="start" x="1357.75" y="-288.78" font-family="Arial" font-size="11.00">uuid</text>
</g>
<!-- subject_topics -->
<g id="node5" class="node">
<title>subject_topics</title>
<polygon fill="none" stroke="#64748b" points="1040.05,-80.58 1040.05,-152.18 1178.59,-152.18 1178.59,-80.58 1040.05,-80.58"/>
<polygon fill="#64748b" stroke="none" points="1041.05,-127.98 1041.05,-151.18 1177.59,-151.18 1177.59,-127.98 1041.05,-127.98"/>
<text xml:space="preserve" text-anchor="start" x="1046.05" y="-137.28" font-family="Arial" font-weight="bold" font-size="11.00" fill="white">subject_topics [externa]</text>
<text xml:space="preserve" text-anchor="start" x="1046.05" y="-111.98" font-family="Arial" font-size="11.00">id</text>
<text xml:space="preserve" text-anchor="start" x="1128.69" y="-111.98" font-family="Arial" font-size="11.00">uuid</text>
<text xml:space="preserve" text-anchor="start" x="1046.05" y="-88.78" font-family="Arial" font-size="11.00">subject_id</text>
<text xml:space="preserve" text-anchor="start" x="1128.69" y="-88.78" font-family="Arial" font-size="11.00">uuid</text>
</g>
<!-- study_groups -->
<g id="node6" class="node">
<title>study_groups</title>
<polygon fill="none" stroke="#d97706" points="1015.16,-214.78 1015.16,-587.98 1203.49,-587.98 1203.49,-214.78 1015.16,-214.78"/>
<polygon fill="#d97706" stroke="none" points="1016.16,-563.78 1016.16,-586.98 1202.49,-586.98 1202.49,-563.78 1016.16,-563.78"/>
<text xml:space="preserve" text-anchor="start" x="1072.96" y="-573.08" font-family="Arial" font-weight="bold" font-size="11.00" fill="white">study_groups</text>
<text xml:space="preserve" text-anchor="start" x="1021.16" y="-547.78" font-family="Arial" font-size="11.00">id</text>
<text xml:space="preserve" text-anchor="start" x="1111.87" y="-547.78" font-family="Arial" font-size="11.00">uuid</text>
<text xml:space="preserve" text-anchor="start" x="1021.16" y="-524.58" font-family="Arial" font-size="11.00">created_by</text>
<text xml:space="preserve" text-anchor="start" x="1111.87" y="-524.58" font-family="Arial" font-size="11.00">uuid</text>
<text xml:space="preserve" text-anchor="start" x="1021.16" y="-501.38" font-family="Arial" font-size="11.00">subject_id</text>
<text xml:space="preserve" text-anchor="start" x="1111.87" y="-501.38" font-family="Arial" font-size="11.00">uuid</text>
<text xml:space="preserve" text-anchor="start" x="1021.16" y="-478.18" font-family="Arial" font-size="11.00">class_section_id</text>
<text xml:space="preserve" text-anchor="start" x="1111.87" y="-478.18" font-family="Arial" font-size="11.00">uuid</text>
<text xml:space="preserve" text-anchor="start" x="1021.16" y="-454.98" font-family="Arial" font-size="11.00">name</text>
<text xml:space="preserve" text-anchor="start" x="1111.87" y="-454.98" font-family="Arial" font-size="11.00">varchar(150)</text>
<text xml:space="preserve" text-anchor="start" x="1021.16" y="-431.78" font-family="Arial" font-size="11.00">description</text>
<text xml:space="preserve" text-anchor="start" x="1111.87" y="-431.78" font-family="Arial" font-size="11.00">text</text>
<text xml:space="preserve" text-anchor="start" x="1021.16" y="-408.58" font-family="Arial" font-size="11.00">rules</text>
<text xml:space="preserve" text-anchor="start" x="1111.87" y="-408.58" font-family="Arial" font-size="11.00">text</text>
<text xml:space="preserve" text-anchor="start" x="1021.16" y="-385.38" font-family="Arial" font-size="11.00">visibility</text>
<text xml:space="preserve" text-anchor="start" x="1111.87" y="-385.38" font-family="Arial" font-size="11.00">group_visibility</text>
<text xml:space="preserve" text-anchor="start" x="1021.16" y="-362.18" font-family="Arial" font-size="11.00">join_policy</text>
<text xml:space="preserve" text-anchor="start" x="1111.87" y="-362.18" font-family="Arial" font-size="11.00">group_join_policy</text>
<text xml:space="preserve" text-anchor="start" x="1021.16" y="-338.98" font-family="Arial" font-size="11.00">status</text>
<text xml:space="preserve" text-anchor="start" x="1111.87" y="-338.98" font-family="Arial" font-size="11.00">group_status</text>
<text xml:space="preserve" text-anchor="start" x="1021.16" y="-315.78" font-family="Arial" font-size="11.00">capacity</text>
<text xml:space="preserve" text-anchor="start" x="1111.87" y="-315.78" font-family="Arial" font-size="11.00">integer</text>
<text xml:space="preserve" text-anchor="start" x="1021.16" y="-292.58" font-family="Arial" font-size="11.00">cover_file_id</text>
<text xml:space="preserve" text-anchor="start" x="1111.87" y="-292.58" font-family="Arial" font-size="11.00">uuid</text>
<text xml:space="preserve" text-anchor="start" x="1021.16" y="-269.38" font-family="Arial" font-size="11.00">created_at</text>
<text xml:space="preserve" text-anchor="start" x="1111.87" y="-269.38" font-family="Arial" font-size="11.00">timestamptz</text>
<text xml:space="preserve" text-anchor="start" x="1021.16" y="-246.18" font-family="Arial" font-size="11.00">updated_at</text>
<text xml:space="preserve" text-anchor="start" x="1111.87" y="-246.18" font-family="Arial" font-size="11.00">timestamptz</text>
<text xml:space="preserve" text-anchor="start" x="1021.16" y="-222.98" font-family="Arial" font-size="11.00">deleted_at</text>
<text xml:space="preserve" text-anchor="start" x="1111.87" y="-222.98" font-family="Arial" font-size="11.00">timestamptz</text>
</g>
<!-- study_groups&#45;&gt;users -->
<g id="edge1" class="edge">
<title>study_groups&#45;&gt;users</title>
<g id="a_edge1"><a xlink:title="created_by → id; DELETE restrict">
<path fill="none" stroke="#94a3b8" d="M1203.33,-540.65C1245.36,-603.58 1291.26,-672.32 1316.97,-710.81"/>
<polygon fill="#94a3b8" stroke="#94a3b8" points="1314.88,-711.78 1320.39,-715.93 1318.67,-709.26 1314.88,-711.78"/>
</a>
</g>
</g>
<!-- study_groups&#45;&gt;files -->
<g id="edge4" class="edge">
<title>study_groups&#45;&gt;files</title>
<g id="a_edge4"><a xlink:title="cover_file_id → id; DELETE set null">
<path fill="none" stroke="#94a3b8" d="M1203.33,-401.38C1232.73,-401.38 1264.02,-401.38 1288.97,-401.38"/>
<polygon fill="#94a3b8" stroke="#94a3b8" points="1288.83,-403.65 1295.33,-401.38 1288.83,-399.1 1288.83,-403.65"/>
</a>
</g>
</g>
<!-- study_groups&#45;&gt;subjects -->
<g id="edge2" class="edge">
<title>study_groups&#45;&gt;subjects</title>
<g id="a_edge2"><a xlink:title="subject_id → id; DELETE restrict">
<path fill="none" stroke="#94a3b8" d="M1203.33,-431.28C1228.53,-439.38 1255.12,-447.93 1277.92,-455.26"/>
<polygon fill="#94a3b8" stroke="#94a3b8" points="1277.17,-457.41 1284.06,-457.23 1278.56,-453.08 1277.17,-457.41"/>
</a>
</g>
</g>
<!-- study_groups&#45;&gt;class_sections -->
<g id="edge3" class="edge">
<title>study_groups&#45;&gt;class_sections</title>
<g id="a_edge3"><a xlink:title="class_section_id, subject_id → id, subject_id; DELETE restrict">
<path fill="none" stroke="#94a3b8" d="M1203.33,-366.56C1222.58,-359.35 1242.64,-351.84 1261.2,-344.9"/>
<polygon fill="#94a3b8" stroke="#94a3b8" points="1261.8,-347.1 1267.08,-342.69 1260.2,-342.84 1261.8,-347.1"/>
</a>
</g>
</g>
<!-- group_members -->
<g id="node7" class="node">
<title>group_members</title>
<polygon fill="none" stroke="#d97706" points="764.59,-647.58 764.59,-835.18 943.11,-835.18 943.11,-647.58 764.59,-647.58"/>
<polygon fill="#d97706" stroke="none" points="765.59,-810.98 765.59,-834.18 942.11,-834.18 942.11,-810.98 765.59,-810.98"/>
<text xml:space="preserve" text-anchor="start" x="810.76" y="-820.28" font-family="Arial" font-weight="bold" font-size="11.00" fill="white">group_members</text>
<text xml:space="preserve" text-anchor="start" x="770.59" y="-794.98" font-family="Arial" font-size="11.00">group_id</text>
<text xml:space="preserve" text-anchor="start" x="841.12" y="-794.98" font-family="Arial" font-size="11.00">uuid</text>
<text xml:space="preserve" text-anchor="start" x="770.59" y="-771.78" font-family="Arial" font-size="11.00">user_id</text>
<text xml:space="preserve" text-anchor="start" x="841.12" y="-771.78" font-family="Arial" font-size="11.00">uuid</text>
<text xml:space="preserve" text-anchor="start" x="770.59" y="-748.58" font-family="Arial" font-size="11.00">role</text>
<text xml:space="preserve" text-anchor="start" x="841.12" y="-748.58" font-family="Arial" font-size="11.00">membership_role</text>
<text xml:space="preserve" text-anchor="start" x="770.59" y="-725.38" font-family="Arial" font-size="11.00">status</text>
<text xml:space="preserve" text-anchor="start" x="841.12" y="-725.38" font-family="Arial" font-size="11.00">membership_status</text>
<text xml:space="preserve" text-anchor="start" x="770.59" y="-702.18" font-family="Arial" font-size="11.00">joined_at</text>
<text xml:space="preserve" text-anchor="start" x="841.12" y="-702.18" font-family="Arial" font-size="11.00">timestamptz</text>
<text xml:space="preserve" text-anchor="start" x="770.59" y="-678.98" font-family="Arial" font-size="11.00">ended_at</text>
<text xml:space="preserve" text-anchor="start" x="841.12" y="-678.98" font-family="Arial" font-size="11.00">timestamptz</text>
<text xml:space="preserve" text-anchor="start" x="770.59" y="-655.78" font-family="Arial" font-size="11.00">removed_by</text>
<text xml:space="preserve" text-anchor="start" x="841.12" y="-655.78" font-family="Arial" font-size="11.00">uuid</text>
</g>
<!-- group_members&#45;&gt;users -->
<g id="edge6" class="edge">
<title>group_members&#45;&gt;users</title>
<g id="a_edge6"><a xlink:title="user_id → id; DELETE restrict">
<path fill="none" stroke="#94a3b8" d="M943.07,-733.93C1043.32,-730.96 1203.6,-731.42 1285.51,-735.29"/>
<polygon fill="#94a3b8" stroke="#94a3b8" points="1285.07,-737.55 1291.68,-735.6 1285.3,-733.01 1285.07,-737.55"/>
</a>
</g>
</g>
<!-- group_members&#45;&gt;users -->
<g id="edge7" class="edge">
<title>group_members&#45;&gt;users</title>
<g id="a_edge7"><a xlink:title="removed_by → id; DELETE restrict">
<path fill="none" stroke="#94a3b8" d="M943.07,-748.82C1043.32,-751.79 1203.6,-751.33 1285.51,-747.46"/>
<polygon fill="#94a3b8" stroke="#94a3b8" points="1285.3,-749.74 1291.68,-747.15 1285.07,-745.2 1285.3,-749.74"/>
</a>
</g>
</g>
<!-- group_members&#45;&gt;study_groups -->
<g id="edge5" class="edge">
<title>group_members&#45;&gt;study_groups</title>
<g id="a_edge5"><a xlink:title="group_id → id; DELETE cascade">
<path fill="none" stroke="#94a3b8" d="M940.25,-647.75C943.64,-643.61 946.96,-639.47 950.16,-635.38 970.65,-609.15 991.39,-580.39 1010.81,-552.27"/>
<polygon fill="#94a3b8" stroke="#94a3b8" points="1012.53,-553.8 1014.34,-547.15 1008.78,-551.22 1012.53,-553.8"/>
</a>
</g>
</g>
<!-- group_join_requests -->
<g id="node8" class="node">
<title>group_join_requests</title>
<polygon fill="none" stroke="#d97706" points="757.54,-411.98 757.54,-622.78 950.16,-622.78 950.16,-411.98 757.54,-411.98"/>
<polygon fill="#d97706" stroke="none" points="758.54,-598.58 758.54,-621.78 949.16,-621.78 949.16,-598.58 758.54,-598.58"/>
<text xml:space="preserve" text-anchor="start" x="799.45" y="-607.88" font-family="Arial" font-weight="bold" font-size="11.00" fill="white">group_join_requests</text>
<text xml:space="preserve" text-anchor="start" x="763.54" y="-582.58" font-family="Arial" font-size="11.00">id</text>
<text xml:space="preserve" text-anchor="start" x="848.76" y="-582.58" font-family="Arial" font-size="11.00">uuid</text>
<text xml:space="preserve" text-anchor="start" x="763.54" y="-559.38" font-family="Arial" font-size="11.00">group_id</text>
<text xml:space="preserve" text-anchor="start" x="848.76" y="-559.38" font-family="Arial" font-size="11.00">uuid</text>
<text xml:space="preserve" text-anchor="start" x="763.54" y="-536.18" font-family="Arial" font-size="11.00">user_id</text>
<text xml:space="preserve" text-anchor="start" x="848.76" y="-536.18" font-family="Arial" font-size="11.00">uuid</text>
<text xml:space="preserve" text-anchor="start" x="763.54" y="-512.98" font-family="Arial" font-size="11.00">status</text>
<text xml:space="preserve" text-anchor="start" x="848.76" y="-512.98" font-family="Arial" font-size="11.00">join_request_status</text>
<text xml:space="preserve" text-anchor="start" x="763.54" y="-489.78" font-family="Arial" font-size="11.00">requested_at</text>
<text xml:space="preserve" text-anchor="start" x="848.76" y="-489.78" font-family="Arial" font-size="11.00">timestamptz</text>
<text xml:space="preserve" text-anchor="start" x="763.54" y="-466.58" font-family="Arial" font-size="11.00">resolved_by</text>
<text xml:space="preserve" text-anchor="start" x="848.76" y="-466.58" font-family="Arial" font-size="11.00">uuid</text>
<text xml:space="preserve" text-anchor="start" x="763.54" y="-443.38" font-family="Arial" font-size="11.00">resolved_at</text>
<text xml:space="preserve" text-anchor="start" x="848.76" y="-443.38" font-family="Arial" font-size="11.00">timestamptz</text>
<text xml:space="preserve" text-anchor="start" x="763.54" y="-420.18" font-family="Arial" font-size="11.00">resolution_note</text>
<text xml:space="preserve" text-anchor="start" x="848.76" y="-420.18" font-family="Arial" font-size="11.00">text</text>
</g>
<!-- group_join_requests&#45;&gt;users -->
<g id="edge9" class="edge">
<title>group_join_requests&#45;&gt;users</title>
<g id="a_edge9"><a xlink:title="user_id → id; DELETE restrict">
<path fill="none" stroke="#94a3b8" d="M950.13,-555.81C971.4,-566.44 993.94,-577.75 1015.16,-587.88 1112.14,-634.14 1228.04,-683.42 1291.03,-713.77"/>
<polygon fill="#94a3b8" stroke="#94a3b8" points="1289.87,-715.74 1296.71,-716.54 1291.86,-711.65 1289.87,-715.74"/>
</a>
</g>
</g>
<!-- group_join_requests&#45;&gt;users -->
<g id="edge10" class="edge">
<title>group_join_requests&#45;&gt;users</title>
<g id="a_edge10"><a xlink:title="resolved_by → id; DELETE restrict">
<path fill="none" stroke="#94a3b8" d="M950.13,-580.19C971.4,-591.44 993.94,-602.75 1015.16,-612.88 1109.62,-657.94 1222.03,-705.86 1286.01,-728.87"/>
<polygon fill="#94a3b8" stroke="#94a3b8" points="1284.88,-730.88 1291.76,-730.91 1286.4,-726.59 1284.88,-730.88"/>
</a>
</g>
</g>
<!-- group_join_requests&#45;&gt;study_groups -->
<g id="edge8" class="edge">
<title>group_join_requests&#45;&gt;study_groups</title>
<g id="a_edge8"><a xlink:title="group_id → id; DELETE cascade">
<path fill="none" stroke="#94a3b8" d="M949.96,-473.85C968.89,-465.19 988.83,-456.06 1007.93,-447.32"/>
<polygon fill="#94a3b8" stroke="#94a3b8" points="1008.87,-449.39 1013.83,-444.62 1006.98,-445.25 1008.87,-449.39"/>
</a>
</g>
</g>
<!-- group_topics -->
<g id="node9" class="node">
<title>group_topics</title>
<polygon fill="none" stroke="#d97706" points="772.23,-121.18 772.23,-285.58 935.47,-285.58 935.47,-121.18 772.23,-121.18"/>
<polygon fill="#d97706" stroke="none" points="773.23,-261.38 773.23,-284.58 934.47,-284.58 934.47,-261.38 773.23,-261.38"/>
<text xml:space="preserve" text-anchor="start" x="819.02" y="-270.68" font-family="Arial" font-weight="bold" font-size="11.00" fill="white">group_topics</text>
<text xml:space="preserve" text-anchor="start" x="778.23" y="-245.38" font-family="Arial" font-size="11.00">id</text>
<text xml:space="preserve" text-anchor="start" x="867.11" y="-245.38" font-family="Arial" font-size="11.00">uuid</text>
<text xml:space="preserve" text-anchor="start" x="778.23" y="-222.18" font-family="Arial" font-size="11.00">group_id</text>
<text xml:space="preserve" text-anchor="start" x="867.11" y="-222.18" font-family="Arial" font-size="11.00">uuid</text>
<text xml:space="preserve" text-anchor="start" x="778.23" y="-198.98" font-family="Arial" font-size="11.00">subject_id</text>
<text xml:space="preserve" text-anchor="start" x="867.11" y="-198.98" font-family="Arial" font-size="11.00">uuid</text>
<text xml:space="preserve" text-anchor="start" x="778.23" y="-175.78" font-family="Arial" font-size="11.00">subject_topic_id</text>
<text xml:space="preserve" text-anchor="start" x="867.11" y="-175.78" font-family="Arial" font-size="11.00">uuid</text>
<text xml:space="preserve" text-anchor="start" x="778.23" y="-152.58" font-family="Arial" font-size="11.00">custom_title</text>
<text xml:space="preserve" text-anchor="start" x="867.11" y="-152.58" font-family="Arial" font-size="11.00">varchar(255)</text>
<text xml:space="preserve" text-anchor="start" x="778.23" y="-129.38" font-family="Arial" font-size="11.00">created_at</text>
<text xml:space="preserve" text-anchor="start" x="867.11" y="-129.38" font-family="Arial" font-size="11.00">timestamptz</text>
</g>
<!-- group_topics&#45;&gt;subject_topics -->
<g id="edge12" class="edge">
<title>group_topics&#45;&gt;subject_topics</title>
<g id="a_edge12"><a xlink:title="subject_topic_id, subject_id → id, subject_id; DELETE restrict">
<path fill="none" stroke="#94a3b8" d="M935.4,-175.73C966.67,-165 1002.28,-152.77 1033.03,-142.22"/>
<polygon fill="#94a3b8" stroke="#94a3b8" points="1033.49,-144.47 1038.9,-140.2 1032.01,-140.16 1033.49,-144.47"/>
</a>
</g>
</g>
<!-- group_topics&#45;&gt;study_groups -->
<g id="edge11" class="edge">
<title>group_topics&#45;&gt;study_groups</title>
<g id="a_edge11"><a xlink:title="group_id, subject_id → id, subject_id; DELETE cascade">
<path fill="none" stroke="#94a3b8" d="M935.4,-266.3C958.79,-284.56 984.6,-304.73 1009,-323.79"/>
<polygon fill="#94a3b8" stroke="#94a3b8" points="1007.45,-325.47 1013.97,-327.67 1010.25,-321.88 1007.45,-325.47"/>
</a>
</g>
</g>
<!-- channels -->
<g id="node10" class="node">
<title>channels</title>
<polygon fill="none" stroke="#d97706" points="524.38,-361.38 524.38,-595.38 692.54,-595.38 692.54,-361.38 524.38,-361.38"/>
<polygon fill="#d97706" stroke="none" points="525.38,-571.18 525.38,-594.38 691.54,-594.38 691.54,-571.18 525.38,-571.18"/>
<text xml:space="preserve" text-anchor="start" x="584.62" y="-580.48" font-family="Arial" font-weight="bold" font-size="11.00" fill="white">channels</text>
<text xml:space="preserve" text-anchor="start" x="530.38" y="-555.18" font-family="Arial" font-size="11.00">id</text>
<text xml:space="preserve" text-anchor="start" x="612.54" y="-555.18" font-family="Arial" font-size="11.00">uuid</text>
<text xml:space="preserve" text-anchor="start" x="530.38" y="-531.98" font-family="Arial" font-size="11.00">group_id</text>
<text xml:space="preserve" text-anchor="start" x="612.54" y="-531.98" font-family="Arial" font-size="11.00">uuid</text>
<text xml:space="preserve" text-anchor="start" x="530.38" y="-508.78" font-family="Arial" font-size="11.00">group_topic_id</text>
<text xml:space="preserve" text-anchor="start" x="612.54" y="-508.78" font-family="Arial" font-size="11.00">uuid</text>
<text xml:space="preserve" text-anchor="start" x="530.38" y="-485.58" font-family="Arial" font-size="11.00">name</text>
<text xml:space="preserve" text-anchor="start" x="612.54" y="-485.58" font-family="Arial" font-size="11.00">varchar(80)</text>
<text xml:space="preserve" text-anchor="start" x="530.38" y="-462.38" font-family="Arial" font-size="11.00">description</text>
<text xml:space="preserve" text-anchor="start" x="612.54" y="-462.38" font-family="Arial" font-size="11.00">text</text>
<text xml:space="preserve" text-anchor="start" x="530.38" y="-439.18" font-family="Arial" font-size="11.00">created_by</text>
<text xml:space="preserve" text-anchor="start" x="612.54" y="-439.18" font-family="Arial" font-size="11.00">uuid</text>
<text xml:space="preserve" text-anchor="start" x="530.38" y="-415.98" font-family="Arial" font-size="11.00">status</text>
<text xml:space="preserve" text-anchor="start" x="612.54" y="-415.98" font-family="Arial" font-size="11.00">channel_status</text>
<text xml:space="preserve" text-anchor="start" x="530.38" y="-392.78" font-family="Arial" font-size="11.00">created_at</text>
<text xml:space="preserve" text-anchor="start" x="612.54" y="-392.78" font-family="Arial" font-size="11.00">timestamptz</text>
<text xml:space="preserve" text-anchor="start" x="530.38" y="-369.58" font-family="Arial" font-size="11.00">archived_at</text>
<text xml:space="preserve" text-anchor="start" x="612.54" y="-369.58" font-family="Arial" font-size="11.00">timestamptz</text>
</g>
<!-- channels&#45;&gt;users -->
<g id="edge15" class="edge">
<title>channels&#45;&gt;users</title>
<g id="a_edge15"><a xlink:title="created_by → id; DELETE restrict">
<path fill="none" stroke="#94a3b8" d="M622.16,-595.16C638.26,-680.76 674.77,-791.4 757.54,-847.38 928.42,-962.93 1189.7,-830.79 1293.07,-769.38"/>
<polygon fill="#94a3b8" stroke="#94a3b8" points="1293.94,-771.51 1298.35,-766.22 1291.6,-767.61 1293.94,-771.51"/>
</a>
</g>
</g>
<!-- channels&#45;&gt;study_groups -->
<g id="edge13" class="edge">
<title>channels&#45;&gt;study_groups</title>
<g id="a_edge13"><a xlink:title="group_id → id; DELETE cascade">
<path fill="none" stroke="#94a3b8" d="M692.31,-425.11C712.85,-414.5 735.35,-404.92 757.54,-399.38 839.91,-378.78 936.61,-381.21 1007.59,-387.69"/>
<polygon fill="#94a3b8" stroke="#94a3b8" points="1007.05,-389.93 1013.74,-388.28 1007.48,-385.4 1007.05,-389.93"/>
</a>
</g>
</g>
<!-- channels&#45;&gt;group_topics -->
<g id="edge14" class="edge">
<title>channels&#45;&gt;group_topics</title>
<g id="a_edge14"><a xlink:title="group_topic_id, group_id → id, group_id; DELETE restrict">
<path fill="none" stroke="#94a3b8" d="M692.54,-384.5C719.27,-354.31 748.76,-320.98 775.09,-291.24"/>
<polygon fill="#94a3b8" stroke="#94a3b8" points="776.7,-292.84 779.31,-286.47 773.3,-289.83 776.7,-292.84"/>
</a>
</g>
</g>
<!-- channel_messages -->
<g id="node11" class="node">
<title>channel_messages</title>
<polygon fill="none" stroke="#d97706" points="273.52,-606.98 273.52,-817.78 459.38,-817.78 459.38,-606.98 273.52,-606.98"/>
<polygon fill="#d97706" stroke="none" points="274.52,-793.58 274.52,-816.78 458.38,-816.78 458.38,-793.58 274.52,-793.58"/>
<text xml:space="preserve" text-anchor="start" x="316" y="-802.88" font-family="Arial" font-weight="bold" font-size="11.00" fill="white">channel_messages</text>
<text xml:space="preserve" text-anchor="start" x="279.52" y="-777.58" font-family="Arial" font-size="11.00">id</text>
<text xml:space="preserve" text-anchor="start" x="394.09" y="-777.58" font-family="Arial" font-size="11.00">uuid</text>
<text xml:space="preserve" text-anchor="start" x="279.52" y="-754.38" font-family="Arial" font-size="11.00">channel_id</text>
<text xml:space="preserve" text-anchor="start" x="394.09" y="-754.38" font-family="Arial" font-size="11.00">uuid</text>
<text xml:space="preserve" text-anchor="start" x="279.52" y="-731.18" font-family="Arial" font-size="11.00">author_id</text>
<text xml:space="preserve" text-anchor="start" x="394.09" y="-731.18" font-family="Arial" font-size="11.00">uuid</text>
<text xml:space="preserve" text-anchor="start" x="279.52" y="-707.98" font-family="Arial" font-size="11.00">reply_to_message_id</text>
<text xml:space="preserve" text-anchor="start" x="394.09" y="-707.98" font-family="Arial" font-size="11.00">uuid</text>
<text xml:space="preserve" text-anchor="start" x="279.52" y="-684.78" font-family="Arial" font-size="11.00">content</text>
<text xml:space="preserve" text-anchor="start" x="394.09" y="-684.78" font-family="Arial" font-size="11.00">text</text>
<text xml:space="preserve" text-anchor="start" x="279.52" y="-661.58" font-family="Arial" font-size="11.00">created_at</text>
<text xml:space="preserve" text-anchor="start" x="394.09" y="-661.58" font-family="Arial" font-size="11.00">timestamptz</text>
<text xml:space="preserve" text-anchor="start" x="279.52" y="-638.38" font-family="Arial" font-size="11.00">edited_at</text>
<text xml:space="preserve" text-anchor="start" x="394.09" y="-638.38" font-family="Arial" font-size="11.00">timestamptz</text>
<text xml:space="preserve" text-anchor="start" x="279.52" y="-615.18" font-family="Arial" font-size="11.00">deleted_at</text>
<text xml:space="preserve" text-anchor="start" x="394.09" y="-615.18" font-family="Arial" font-size="11.00">timestamptz</text>
</g>
<!-- channel_messages&#45;&gt;users -->
<g id="edge17" class="edge">
<title>channel_messages&#45;&gt;users</title>
<g id="a_edge17"><a xlink:title="author_id → id; DELETE restrict">
<path fill="none" stroke="#94a3b8" d="M459.32,-767.66C536.01,-810.4 649.78,-866.07 757.54,-889.38 951.44,-931.31 1022.42,-951.41 1203.49,-870.38 1251.35,-848.95 1292.38,-802.78 1315.98,-771.89"/>
<polygon fill="#94a3b8" stroke="#94a3b8" points="1317.75,-773.31 1319.84,-766.75 1314.12,-770.58 1317.75,-773.31"/>
</a>
</g>
</g>
<!-- channel_messages&#45;&gt;channels -->
<g id="edge16" class="edge">
<title>channel_messages&#45;&gt;channels</title>
<g id="a_edge16"><a xlink:title="channel_id → id; DELETE cascade">
<path fill="none" stroke="#94a3b8" d="M459.21,-622.91C478.81,-603.8 499.47,-583.66 518.94,-564.68"/>
<polygon fill="#94a3b8" stroke="#94a3b8" points="520.25,-566.58 523.32,-560.41 517.08,-563.32 520.25,-566.58"/>
</a>
</g>
</g>
<!-- channel_messages&#45;&gt;channel_messages -->
<g id="edge18" class="edge">
<title>channel_messages&#45;&gt;channel_messages</title>
<g id="a_edge18"><a xlink:title="reply_to_message_id → id; DELETE set null">
<path fill="none" stroke="#94a3b8" d="M346.09,-817.77C349.38,-832.73 356.17,-842.78 366.45,-842.78 374.88,-842.78 380.97,-836.02 384.7,-825.33"/>
<polygon fill="#94a3b8" stroke="#94a3b8" points="386.84,-826.1 386.4,-819.23 382.46,-824.88 386.84,-826.1"/>
</a>
</g>
</g>
<!-- channel_messages&#45;&gt;channel_messages -->
<g id="edge19" class="edge">
<title>channel_messages&#45;&gt;channel_messages</title>
<g id="a_edge19"><a xlink:title="reply_to_message_id, channel_id → id, channel_id; DELETE no action">
<path fill="none" stroke="#94a3b8" d="M321.41,-817.69C323.78,-846.14 338.8,-867.78 366.45,-867.78 391.51,-867.78 406.19,-850 410.49,-825.5"/>
<polygon fill="#94a3b8" stroke="#94a3b8" points="412.73,-825.93 411.3,-819.19 408.22,-825.35 412.73,-825.93"/>
</a>
</g>
</g>
<!-- meetings -->
<g id="node12" class="node">
<title>meetings</title>
<polygon fill="none" stroke="#d97706" points="282.08,-190.38 282.08,-540.38 450.82,-540.38 450.82,-190.38 282.08,-190.38"/>
<polygon fill="#d97706" stroke="none" points="283.08,-516.18 283.08,-539.38 449.82,-539.38 449.82,-516.18 283.08,-516.18"/>
<text xml:space="preserve" text-anchor="start" x="342.3" y="-525.48" font-family="Arial" font-weight="bold" font-size="11.00" fill="white">meetings</text>
<text xml:space="preserve" text-anchor="start" x="288.08" y="-500.18" font-family="Arial" font-size="11.00">id</text>
<text xml:space="preserve" text-anchor="start" x="358.61" y="-500.18" font-family="Arial" font-size="11.00">uuid</text>
<text xml:space="preserve" text-anchor="start" x="288.08" y="-476.98" font-family="Arial" font-size="11.00">group_id</text>
<text xml:space="preserve" text-anchor="start" x="358.61" y="-476.98" font-family="Arial" font-size="11.00">uuid</text>
<text xml:space="preserve" text-anchor="start" x="288.08" y="-453.78" font-family="Arial" font-size="11.00">channel_id</text>
<text xml:space="preserve" text-anchor="start" x="358.61" y="-453.78" font-family="Arial" font-size="11.00">uuid</text>
<text xml:space="preserve" text-anchor="start" x="288.08" y="-430.58" font-family="Arial" font-size="11.00">organizer_id</text>
<text xml:space="preserve" text-anchor="start" x="358.61" y="-430.58" font-family="Arial" font-size="11.00">uuid</text>
<text xml:space="preserve" text-anchor="start" x="288.08" y="-407.38" font-family="Arial" font-size="11.00">title</text>
<text xml:space="preserve" text-anchor="start" x="358.61" y="-407.38" font-family="Arial" font-size="11.00">varchar(200)</text>
<text xml:space="preserve" text-anchor="start" x="288.08" y="-384.18" font-family="Arial" font-size="11.00">description</text>
<text xml:space="preserve" text-anchor="start" x="358.61" y="-384.18" font-family="Arial" font-size="11.00">text</text>
<text xml:space="preserve" text-anchor="start" x="288.08" y="-360.98" font-family="Arial" font-size="11.00">modality</text>
<text xml:space="preserve" text-anchor="start" x="358.61" y="-360.98" font-family="Arial" font-size="11.00">meeting_modality</text>
<text xml:space="preserve" text-anchor="start" x="288.08" y="-337.78" font-family="Arial" font-size="11.00">location</text>
<text xml:space="preserve" text-anchor="start" x="358.61" y="-337.78" font-family="Arial" font-size="11.00">varchar(250)</text>
<text xml:space="preserve" text-anchor="start" x="288.08" y="-314.58" font-family="Arial" font-size="11.00">external_url</text>
<text xml:space="preserve" text-anchor="start" x="358.61" y="-314.58" font-family="Arial" font-size="11.00">text</text>
<text xml:space="preserve" text-anchor="start" x="288.08" y="-291.38" font-family="Arial" font-size="11.00">starts_at</text>
<text xml:space="preserve" text-anchor="start" x="358.61" y="-291.38" font-family="Arial" font-size="11.00">timestamptz</text>
<text xml:space="preserve" text-anchor="start" x="288.08" y="-268.18" font-family="Arial" font-size="11.00">ends_at</text>
<text xml:space="preserve" text-anchor="start" x="358.61" y="-268.18" font-family="Arial" font-size="11.00">timestamptz</text>
<text xml:space="preserve" text-anchor="start" x="288.08" y="-244.98" font-family="Arial" font-size="11.00">status</text>
<text xml:space="preserve" text-anchor="start" x="358.61" y="-244.98" font-family="Arial" font-size="11.00">meeting_status</text>
<text xml:space="preserve" text-anchor="start" x="288.08" y="-221.78" font-family="Arial" font-size="11.00">created_at</text>
<text xml:space="preserve" text-anchor="start" x="358.61" y="-221.78" font-family="Arial" font-size="11.00">timestamptz</text>
<text xml:space="preserve" text-anchor="start" x="288.08" y="-198.58" font-family="Arial" font-size="11.00">updated_at</text>
<text xml:space="preserve" text-anchor="start" x="358.61" y="-198.58" font-family="Arial" font-size="11.00">timestamptz</text>
</g>
<!-- meetings&#45;&gt;users -->
<g id="edge23" class="edge">
<title>meetings&#45;&gt;users</title>
<g id="a_edge23"><a xlink:title="organizer_id → id; DELETE restrict">
<path fill="none" stroke="#94a3b8" d="M450.71,-287.45C613.37,-144.66 977.22,127.11 1203.49,-68.38 1278.78,-133.42 1246.93,-414.24 1268.49,-511.38 1284.5,-583.55 1311.39,-666.11 1326.4,-710.02"/>
<polygon fill="#94a3b8" stroke="#94a3b8" points="1324.22,-710.67 1328.48,-716.07 1328.52,-709.19 1324.22,-710.67"/>
</a>
</g>
</g>
<!-- meetings&#45;&gt;study_groups -->
<g id="edge20" class="edge">
<title>meetings&#45;&gt;study_groups</title>
<g id="a_edge20"><a xlink:title="group_id → id; DELETE cascade">
<path fill="none" stroke="#94a3b8" d="M450.81,-355.29C474.54,-352.85 500.45,-350.59 524.38,-349.38 713.78,-339.74 762.1,-352.9 950.16,-377.38 968.68,-379.79 988.38,-382.59 1007.36,-385.4"/>
<polygon fill="#94a3b8" stroke="#94a3b8" points="1006.9,-387.63 1013.67,-386.34 1007.57,-383.13 1006.9,-387.63"/>
</a>
</g>
</g>
<!-- meetings&#45;&gt;channels -->
<g id="edge21" class="edge">
<title>meetings&#45;&gt;channels</title>
<g id="a_edge21"><a xlink:title="channel_id → id; DELETE set null">
<path fill="none" stroke="#94a3b8" d="M450.72,-395.61C472.34,-405.3 495.73,-416.27 517.67,-427"/>
<polygon fill="#94a3b8" stroke="#94a3b8" points="516.55,-428.98 523.38,-429.8 518.55,-424.89 516.55,-428.98"/>
</a>
</g>
</g>
<!-- meetings&#45;&gt;channels -->
<g id="edge22" class="edge">
<title>meetings&#45;&gt;channels</title>
<g id="a_edge22"><a xlink:title="channel_id, group_id → id, group_id; DELETE no action">
<path fill="none" stroke="#94a3b8" d="M450.72,-413.55C472.34,-424.22 495.73,-435.28 517.67,-445.21"/>
<polygon fill="#94a3b8" stroke="#94a3b8" points="516.5,-447.18 523.36,-447.77 518.37,-443.03 516.5,-447.18"/>
</a>
</g>
</g>
<!-- meeting_participants -->
<g id="node13" class="node">
<title>meeting_participants</title>
<polygon fill="none" stroke="#d97706" points="0,-396.38 0,-514.38 208.52,-514.38 208.52,-396.38 0,-396.38"/>
<polygon fill="#d97706" stroke="none" points="1,-490.18 1,-513.38 207.52,-513.38 207.52,-490.18 1,-490.18"/>
<text xml:space="preserve" text-anchor="start" x="48.94" y="-499.48" font-family="Arial" font-weight="bold" font-size="11.00" fill="white">meeting_participants</text>
<text xml:space="preserve" text-anchor="start" x="6" y="-474.18" font-family="Arial" font-size="11.00">meeting_id</text>
<text xml:space="preserve" text-anchor="start" x="71.05" y="-474.18" font-family="Arial" font-size="11.00">uuid</text>
<text xml:space="preserve" text-anchor="start" x="6" y="-450.98" font-family="Arial" font-size="11.00">user_id</text>
<text xml:space="preserve" text-anchor="start" x="71.05" y="-450.98" font-family="Arial" font-size="11.00">uuid</text>
<text xml:space="preserve" text-anchor="start" x="6" y="-427.78" font-family="Arial" font-size="11.00">status</text>
<text xml:space="preserve" text-anchor="start" x="71.05" y="-427.78" font-family="Arial" font-size="11.00">meeting_participant_status</text>
<text xml:space="preserve" text-anchor="start" x="6" y="-404.58" font-family="Arial" font-size="11.00">updated_at</text>
<text xml:space="preserve" text-anchor="start" x="71.05" y="-404.58" font-family="Arial" font-size="11.00">timestamptz</text>
</g>
<!-- meeting_participants&#45;&gt;users -->
<g id="edge25" class="edge">
<title>meeting_participants&#45;&gt;users</title>
<g id="a_edge25"><a xlink:title="user_id → id; DELETE restrict">
<path fill="none" stroke="#94a3b8" d="M113.48,-514.23C128.94,-602.95 170.6,-770.71 273.52,-866.38 387.88,-972.66 451.34,-975.38 607.46,-975.38 607.46,-975.38 607.46,-975.38 854.85,-975.38 1012,-975.38 1068.91,-997.53 1203.49,-916.38 1260.81,-881.8 1302.33,-812.73 1322.87,-772.47"/>
<polygon fill="#94a3b8" stroke="#94a3b8" points="1324.78,-773.73 1325.66,-766.9 1320.71,-771.69 1324.78,-773.73"/>
</a>
</g>
</g>
<!-- meeting_participants&#45;&gt;meetings -->
<g id="edge24" class="edge">
<title>meeting_participants&#45;&gt;meetings</title>
<g id="a_edge24"><a xlink:title="meeting_id → id; DELETE cascade">
<path fill="none" stroke="#94a3b8" d="M208.47,-419.68C230.42,-412.08 253.45,-404.12 274.89,-396.7"/>
<polygon fill="#94a3b8" stroke="#94a3b8" points="275.58,-398.87 280.98,-394.6 274.09,-394.57 275.58,-398.87"/>
</a>
</g>
</g>
<!-- meeting_topics -->
<g id="node14" class="node">
<title>meeting_topics</title>
<polygon fill="none" stroke="#d97706" points="43.42,-239.58 43.42,-311.18 165.1,-311.18 165.1,-239.58 43.42,-239.58"/>
<polygon fill="#d97706" stroke="none" points="44.42,-286.98 44.42,-310.18 164.1,-310.18 164.1,-286.98 44.42,-286.98"/>
<text xml:space="preserve" text-anchor="start" x="63.92" y="-296.28" font-family="Arial" font-weight="bold" font-size="11.00" fill="white">meeting_topics</text>
<text xml:space="preserve" text-anchor="start" x="49.42" y="-270.98" font-family="Arial" font-size="11.00">meeting_id</text>
<text xml:space="preserve" text-anchor="start" x="138.31" y="-270.98" font-family="Arial" font-size="11.00">uuid</text>
<text xml:space="preserve" text-anchor="start" x="49.42" y="-247.78" font-family="Arial" font-size="11.00">subject_topic_id</text>
<text xml:space="preserve" text-anchor="start" x="138.31" y="-247.78" font-family="Arial" font-size="11.00">uuid</text>
</g>
<!-- meeting_topics&#45;&gt;subject_topics -->
<g id="edge27" class="edge">
<title>meeting_topics&#45;&gt;subject_topics</title>
<g id="a_edge27"><a xlink:title="subject_topic_id → id; DELETE restrict">
<path fill="none" stroke="#94a3b8" d="M155.48,-239.64C187.71,-218.46 231.3,-192.99 273.52,-178.38 540.15,-86.07 882.51,-98.11 1032.38,-109.32"/>
<polygon fill="#94a3b8" stroke="#94a3b8" points="1032.07,-111.58 1038.73,-109.8 1032.42,-107.04 1032.07,-111.58"/>
</a>
</g>
</g>
<!-- meeting_topics&#45;&gt;meetings -->
<g id="edge26" class="edge">
<title>meeting_topics&#45;&gt;meetings</title>
<g id="a_edge26"><a xlink:title="meeting_id → id; DELETE cascade">
<path fill="none" stroke="#94a3b8" d="M164.95,-296.02C197.59,-307.31 238.67,-321.52 275.15,-334.14"/>
<polygon fill="#94a3b8" stroke="#94a3b8" points="274.06,-336.17 280.95,-336.14 275.55,-331.87 274.06,-336.17"/>
</a>
</g>
</g>
</g>
</svg>
