<?xml version="1.0" encoding="UTF-8" standalone="no"?>
<!DOCTYPE svg PUBLIC "-//W3C//DTD SVG 1.1//EN"
 "http://www.w3.org/Graphics/SVG/1.1/DTD/svg11.dtd">
<!-- Generated by graphviz version 16.0.0 (20260814.1018)
 -->
<!-- Title: model Pages: 1 -->
<!-- DBML SHA256: c1d887df1633ef9e1c0e5cfcface71d0d04f68fdcefb71daa9fadbd6be177319 -->
<svg role="img" aria-label="identity" width="499pt" height="542pt"
 viewBox="0.00 0.00 499.00 542.00" xmlns="http://www.w3.org/2000/svg" xmlns:xlink="http://www.w3.org/1999/xlink">
<g id="graph0" class="graph" transform="scale(1 1) rotate(0) translate(25.2 517)">
<title>nexoAula — identity</title>
<polygon fill="white" stroke="none" points="-25.2,25.2 -25.2,-517 473.78,-517 473.78,25.2 -25.2,25.2"/>
<text xml:space="preserve" text-anchor="middle" x="224.29" y="-471.6" font-family="Arial" font-size="18.00">nexoAula | identity | origem FK → destino referenciado</text>
<!-- users -->
<g id="node1" class="node">
<title>users</title>
<polygon fill="none" stroke="#4f46e5" points="253.15,-247.4 253.15,-458.2 420.66,-458.2 420.66,-247.4 253.15,-247.4"/>
<polygon fill="#4f46e5" stroke="none" points="254.15,-434 254.15,-457.2 419.66,-457.2 419.66,-434 254.15,-434"/>
<text xml:space="preserve" text-anchor="start" x="322.23" y="-443.3" font-family="Arial" font-weight="bold" font-size="11.00" fill="white">users</text>
<text xml:space="preserve" text-anchor="start" x="259.15" y="-418" font-family="Arial" font-size="11.00">id</text>
<text xml:space="preserve" text-anchor="start" x="352.3" y="-418" font-family="Arial" font-size="11.00">uuid</text>
<text xml:space="preserve" text-anchor="start" x="259.15" y="-394.8" font-family="Arial" font-size="11.00">email</text>
<text xml:space="preserve" text-anchor="start" x="352.3" y="-394.8" font-family="Arial" font-size="11.00">varchar(320)</text>
<text xml:space="preserve" text-anchor="start" x="259.15" y="-371.6" font-family="Arial" font-size="11.00">password_hash</text>
<text xml:space="preserve" text-anchor="start" x="352.3" y="-371.6" font-family="Arial" font-size="11.00">text</text>
<text xml:space="preserve" text-anchor="start" x="259.15" y="-348.4" font-family="Arial" font-size="11.00">email_verified_at</text>
<text xml:space="preserve" text-anchor="start" x="352.3" y="-348.4" font-family="Arial" font-size="11.00">timestamptz</text>
<text xml:space="preserve" text-anchor="start" x="259.15" y="-325.2" font-family="Arial" font-size="11.00">is_active</text>
<text xml:space="preserve" text-anchor="start" x="352.3" y="-325.2" font-family="Arial" font-size="11.00">boolean</text>
<text xml:space="preserve" text-anchor="start" x="259.15" y="-302" font-family="Arial" font-size="11.00">created_at</text>
<text xml:space="preserve" text-anchor="start" x="352.3" y="-302" font-family="Arial" font-size="11.00">timestamptz</text>
<text xml:space="preserve" text-anchor="start" x="259.15" y="-278.8" font-family="Arial" font-size="11.00">updated_at</text>
<text xml:space="preserve" text-anchor="start" x="352.3" y="-278.8" font-family="Arial" font-size="11.00">timestamptz</text>
<text xml:space="preserve" text-anchor="start" x="259.15" y="-255.6" font-family="Arial" font-size="11.00">deleted_at</text>
<text xml:space="preserve" text-anchor="start" x="352.3" y="-255.6" font-family="Arial" font-size="11.00">timestamptz</text>
</g>
<!-- user_profiles -->
<g id="node2" class="node">
<title>user_profiles</title>
<polygon fill="none" stroke="#4f46e5" points="31.92,-15.4 31.92,-226.2 184.15,-226.2 184.15,-15.4 31.92,-15.4"/>
<polygon fill="#4f46e5" stroke="none" points="32.92,-202 32.92,-225.2 183.15,-225.2 183.15,-202 32.92,-202"/>
<text xml:space="preserve" text-anchor="start" x="73.49" y="-211.3" font-family="Arial" font-weight="bold" font-size="11.00" fill="white">user_profiles</text>
<text xml:space="preserve" text-anchor="start" x="37.92" y="-186" font-family="Arial" font-size="11.00">user_id</text>
<text xml:space="preserve" text-anchor="start" x="115.79" y="-186" font-family="Arial" font-size="11.00">uuid</text>
<text xml:space="preserve" text-anchor="start" x="37.92" y="-162.8" font-family="Arial" font-size="11.00">display_name</text>
<text xml:space="preserve" text-anchor="start" x="115.79" y="-162.8" font-family="Arial" font-size="11.00">varchar(120)</text>
<text xml:space="preserve" text-anchor="start" x="37.92" y="-139.6" font-family="Arial" font-size="11.00">bio</text>
<text xml:space="preserve" text-anchor="start" x="115.79" y="-139.6" font-family="Arial" font-size="11.00">text</text>
<text xml:space="preserve" text-anchor="start" x="37.92" y="-116.4" font-family="Arial" font-size="11.00">avatar_file_id</text>
<text xml:space="preserve" text-anchor="start" x="115.79" y="-116.4" font-family="Arial" font-size="11.00">uuid</text>
<text xml:space="preserve" text-anchor="start" x="37.92" y="-93.2" font-family="Arial" font-size="11.00">institution_id</text>
<text xml:space="preserve" text-anchor="start" x="115.79" y="-93.2" font-family="Arial" font-size="11.00">uuid</text>
<text xml:space="preserve" text-anchor="start" x="37.92" y="-70" font-family="Arial" font-size="11.00">course_id</text>
<text xml:space="preserve" text-anchor="start" x="115.79" y="-70" font-family="Arial" font-size="11.00">uuid</text>
<text xml:space="preserve" text-anchor="start" x="37.92" y="-46.8" font-family="Arial" font-size="11.00">created_at</text>
<text xml:space="preserve" text-anchor="start" x="115.79" y="-46.8" font-family="Arial" font-size="11.00">timestamptz</text>
<text xml:space="preserve" text-anchor="start" x="37.92" y="-23.6" font-family="Arial" font-size="11.00">updated_at</text>
<text xml:space="preserve" text-anchor="start" x="115.79" y="-23.6" font-family="Arial" font-size="11.00">timestamptz</text>
</g>
<!-- user_profiles&#45;&gt;users -->
<g id="edge1" class="edge">
<title>user_profiles&#45;&gt;users</title>
<g id="a_edge1"><a xlink:title="user_id → id; DELETE cascade">
<path fill="none" stroke="#94a3b8" d="M183.95,-197.41C204.41,-218.34 226.78,-241.21 247.9,-262.81"/>
<polygon fill="#94a3b8" stroke="#94a3b8" points="246.01,-264.13 252.18,-267.19 249.26,-260.95 246.01,-264.13"/>
</a>
</g>
</g>
<!-- files -->
<g id="node4" class="node">
<title>files</title>
<polygon fill="none" stroke="#64748b" points="295.14,-169.6 295.14,-218 378.67,-218 378.67,-169.6 295.14,-169.6"/>
<polygon fill="#64748b" stroke="none" points="296.14,-193.8 296.14,-217 377.67,-217 377.67,-193.8 296.14,-193.8"/>
<text xml:space="preserve" text-anchor="start" x="301.14" y="-203.1" font-family="Arial" font-weight="bold" font-size="11.00" fill="white">files [externa]</text>
<text xml:space="preserve" text-anchor="start" x="301.14" y="-177.8" font-family="Arial" font-size="11.00">id</text>
<text xml:space="preserve" text-anchor="start" x="335.78" y="-177.8" font-family="Arial" font-size="11.00">uuid</text>
</g>
<!-- user_profiles&#45;&gt;files -->
<g id="edge2" class="edge">
<title>user_profiles&#45;&gt;files</title>
<g id="a_edge2"><a xlink:title="avatar_file_id → id; DELETE set null">
<path fill="none" stroke="#94a3b8" d="M183.95,-144.91C218.21,-155.93 257.8,-168.67 287.98,-178.38"/>
<polygon fill="#94a3b8" stroke="#94a3b8" points="287.12,-180.49 294,-180.32 288.51,-176.16 287.12,-180.49"/>
</a>
</g>
</g>
<!-- institutions -->
<g id="node5" class="node">
<title>institutions</title>
<polygon fill="none" stroke="#64748b" points="276.51,-96.6 276.51,-145 397.3,-145 397.3,-96.6 276.51,-96.6"/>
<polygon fill="#64748b" stroke="none" points="277.51,-120.8 277.51,-144 396.3,-144 396.3,-120.8 277.51,-120.8"/>
<text xml:space="preserve" text-anchor="start" x="282.51" y="-130.1" font-family="Arial" font-weight="bold" font-size="11.00" fill="white">institutions [externa]</text>
<text xml:space="preserve" text-anchor="start" x="282.51" y="-104.8" font-family="Arial" font-size="11.00">id</text>
<text xml:space="preserve" text-anchor="start" x="335.78" y="-104.8" font-family="Arial" font-size="11.00">uuid</text>
</g>
<!-- user_profiles&#45;&gt;institutions -->
<g id="edge3" class="edge">
<title>user_profiles&#45;&gt;institutions</title>
<g id="a_edge3"><a xlink:title="institution_id → id; DELETE set null">
<path fill="none" stroke="#94a3b8" d="M183.95,-120.8C211.44,-120.8 242.35,-120.8 269.08,-120.8"/>
<polygon fill="#94a3b8" stroke="#94a3b8" points="268.85,-123.08 275.35,-120.8 268.85,-118.53 268.85,-123.08"/>
</a>
</g>
</g>
<!-- courses -->
<g id="node6" class="node">
<title>courses</title>
<polygon fill="none" stroke="#64748b" points="284.93,0 284.93,-71.6 388.88,-71.6 388.88,0 284.93,0"/>
<polygon fill="#64748b" stroke="none" points="285.93,-47.4 285.93,-70.6 387.88,-70.6 387.88,-47.4 285.93,-47.4"/>
<text xml:space="preserve" text-anchor="start" x="291.05" y="-56.7" font-family="Arial" font-weight="bold" font-size="11.00" fill="white">courses [externa]</text>
<text xml:space="preserve" text-anchor="start" x="290.93" y="-31.4" font-family="Arial" font-size="11.00">id</text>
<text xml:space="preserve" text-anchor="start" x="362.08" y="-31.4" font-family="Arial" font-size="11.00">uuid</text>
<text xml:space="preserve" text-anchor="start" x="290.93" y="-8.2" font-family="Arial" font-size="11.00">institution_id</text>
<text xml:space="preserve" text-anchor="start" x="362.08" y="-8.2" font-family="Arial" font-size="11.00">uuid</text>
</g>
<!-- user_profiles&#45;&gt;courses -->
<g id="edge4" class="edge">
<title>user_profiles&#45;&gt;courses</title>
<g id="a_edge4"><a xlink:title="course_id, institution_id → id, institution_id; DELETE restrict">
<path fill="none" stroke="#94a3b8" d="M183.95,-92.73C214.4,-81.32 249.05,-68.34 277.56,-57.66"/>
<polygon fill="#94a3b8" stroke="#94a3b8" points="278.35,-59.79 283.64,-55.38 276.75,-55.53 278.35,-59.79"/>
</a>
</g>
</g>
<!-- auth_tokens -->
<g id="node3" class="node">
<title>auth_tokens</title>
<polygon fill="none" stroke="#4f46e5" points="27.92,-251.4 27.92,-462.2 188.15,-462.2 188.15,-251.4 27.92,-251.4"/>
<polygon fill="#4f46e5" stroke="none" points="28.92,-438 28.92,-461.2 187.15,-461.2 187.15,-438 28.92,-438"/>
<text xml:space="preserve" text-anchor="start" x="75.64" y="-447.3" font-family="Arial" font-weight="bold" font-size="11.00" fill="white">auth_tokens</text>
<text xml:space="preserve" text-anchor="start" x="33.92" y="-422" font-family="Arial" font-size="11.00">id</text>
<text xml:space="preserve" text-anchor="start" x="100.8" y="-422" font-family="Arial" font-size="11.00">uuid</text>
<text xml:space="preserve" text-anchor="start" x="33.92" y="-398.8" font-family="Arial" font-size="11.00">user_id</text>
<text xml:space="preserve" text-anchor="start" x="100.8" y="-398.8" font-family="Arial" font-size="11.00">uuid</text>
<text xml:space="preserve" text-anchor="start" x="33.92" y="-375.6" font-family="Arial" font-size="11.00">type</text>
<text xml:space="preserve" text-anchor="start" x="100.8" y="-375.6" font-family="Arial" font-size="11.00">auth_token_type</text>
<text xml:space="preserve" text-anchor="start" x="33.92" y="-352.4" font-family="Arial" font-size="11.00">token_hash</text>
<text xml:space="preserve" text-anchor="start" x="100.8" y="-352.4" font-family="Arial" font-size="11.00">text</text>
<text xml:space="preserve" text-anchor="start" x="33.92" y="-329.2" font-family="Arial" font-size="11.00">expires_at</text>
<text xml:space="preserve" text-anchor="start" x="100.8" y="-329.2" font-family="Arial" font-size="11.00">timestamptz</text>
<text xml:space="preserve" text-anchor="start" x="33.92" y="-306" font-family="Arial" font-size="11.00">used_at</text>
<text xml:space="preserve" text-anchor="start" x="100.8" y="-306" font-family="Arial" font-size="11.00">timestamptz</text>
<text xml:space="preserve" text-anchor="start" x="33.92" y="-282.8" font-family="Arial" font-size="11.00">revoked_at</text>
<text xml:space="preserve" text-anchor="start" x="100.8" y="-282.8" font-family="Arial" font-size="11.00">timestamptz</text>
<text xml:space="preserve" text-anchor="start" x="33.92" y="-259.6" font-family="Arial" font-size="11.00">created_at</text>
<text xml:space="preserve" text-anchor="start" x="100.8" y="-259.6" font-family="Arial" font-size="11.00">timestamptz</text>
</g>
<!-- auth_tokens&#45;&gt;users -->
<g id="edge5" class="edge">
<title>auth_tokens&#45;&gt;users</title>
<g id="a_edge5"><a xlink:title="user_id → id; DELETE cascade">
<path fill="none" stroke="#94a3b8" d="M188.06,-355.41C206.61,-355.08 226.51,-354.73 245.51,-354.39"/>
<polygon fill="#94a3b8" stroke="#94a3b8" points="245.33,-356.67 251.79,-354.28 245.25,-352.12 245.33,-356.67"/>
</a>
</g>
</g>
</g>
</svg>
