<svg xmlns="http://www.w3.org/2000/svg" xmlns:xlink="http://www.w3.org/1999/xlink" width="491pt" height="480" aria-label="media" role="img" viewBox="0 0 491 360"><g id="graph0" class="graph" transform="scale(1 1) rotate(0) translate(25.2 335.2)"><title>nexoAula — media</title><polygon fill="#fff" stroke="none" points="-25.2 25.2 -25.2 -335.2 465.77 -335.2 465.77 25.2 -25.2 25.2"/><text x="220.29" y="-289.8" font-family="Arial" font-size="18" text-anchor="middle" xml:space="preserve">nexoAula | media | origem FK → destino referenciado</text><g id="node1" class="node"><title>users</title><polygon fill="none" stroke="#64748b" points="295.39 -116 295.39 -164.4 386.26 -164.4 386.26 -116 295.39 -116"/><polygon fill="#64748b" stroke="none" points="296.39 -140.2 296.39 -163.4 385.26 -163.4 385.26 -140.2 296.39 -140.2"/><text x="301.39" y="-149.5" fill="#fff" font-family="Arial" font-size="11" font-weight="bold" text-anchor="start" xml:space="preserve">users [externa]</text><text x="301.39" y="-124.2" font-family="Arial" font-size="11" text-anchor="start" xml:space="preserve">id</text><text x="339.71" y="-124.2" font-family="Arial" font-size="11" text-anchor="start" xml:space="preserve">uuid</text></g><g id="node2" class="node"><title>files</title><polygon fill="none" stroke="#64748b" points="54.31 0 54.31 -280.4 230.39 -280.4 230.39 0 54.31 0"/><polygon fill="#64748b" stroke="none" points="55.31 -256.2 55.31 -279.4 229.39 -279.4 229.39 -256.2 55.31 -256.2"/><text x="131.35" y="-265.5" fill="#fff" font-family="Arial" font-size="11" font-weight="bold" text-anchor="start" xml:space="preserve">files</text><text x="60.31" y="-240.2" font-family="Arial" font-size="11" text-anchor="start" xml:space="preserve">id</text><text x="162.03" y="-240.2" font-family="Arial" font-size="11" text-anchor="start" xml:space="preserve">uuid</text><text x="60.31" y="-217" font-family="Arial" font-size="11" text-anchor="start" xml:space="preserve">owner_id</text><text x="162.03" y="-217" font-family="Arial" font-size="11" text-anchor="start" xml:space="preserve">uuid</text><text x="60.31" y="-193.8" font-family="Arial" font-size="11" text-anchor="start" xml:space="preserve">purpose</text><text x="162.03" y="-193.8" font-family="Arial" font-size="11" text-anchor="start" xml:space="preserve">file_purpose</text><text x="60.31" y="-170.6" font-family="Arial" font-size="11" text-anchor="start" xml:space="preserve">storage_provider</text><text x="162.03" y="-170.6" font-family="Arial" font-size="11" text-anchor="start" xml:space="preserve">varchar(40)</text><text x="60.31" y="-147.4" font-family="Arial" font-size="11" text-anchor="start" xml:space="preserve">storage_key</text><text x="162.03" y="-147.4" font-family="Arial" font-size="11" text-anchor="start" xml:space="preserve">text</text><text x="60.31" y="-124.2" font-family="Arial" font-size="11" text-anchor="start" xml:space="preserve">original_filename</text><text x="162.03" y="-124.2" font-family="Arial" font-size="11" text-anchor="start" xml:space="preserve">varchar(255)</text><text x="60.31" y="-101" font-family="Arial" font-size="11" text-anchor="start" xml:space="preserve">mime_type</text><text x="162.03" y="-101" font-family="Arial" font-size="11" text-anchor="start" xml:space="preserve">varchar(150)</text><text x="60.31" y="-77.8" font-family="Arial" font-size="11" text-anchor="start" xml:space="preserve">size_bytes</text><text x="162.03" y="-77.8" font-family="Arial" font-size="11" text-anchor="start" xml:space="preserve">bigint</text><text x="60.31" y="-54.6" font-family="Arial" font-size="11" text-anchor="start" xml:space="preserve">checksum_sha256</text><text x="162.03" y="-54.6" font-family="Arial" font-size="11" text-anchor="start" xml:space="preserve">char(64)</text><text x="60.31" y="-31.4" font-family="Arial" font-size="11" text-anchor="start" xml:space="preserve">created_at</text><text x="162.03" y="-31.4" font-family="Arial" font-size="11" text-anchor="start" xml:space="preserve">timestamptz</text><text x="60.31" y="-8.2" font-family="Arial" font-size="11" text-anchor="start" xml:space="preserve">deleted_at</text><text x="162.03" y="-8.2" font-family="Arial" font-size="11" text-anchor="start" xml:space="preserve">timestamptz</text></g><g id="edge1" class="edge"><title>files-&gt;users</title><g id="a_edge1"><a xlink:title="owner_id → id; DELETE restrict"><path fill="none" stroke="#94a3b8" d="M230.39,-140.2C249.88,-140.2 269.97,-140.2 287.53,-140.2"/><polygon fill="#94a3b8" stroke="#94a3b8" points="287.4 -142.48 293.9 -140.2 287.4 -137.93 287.4 -142.48"/></a></g></g></g></svg>